<svg width="624" height="602" viewBox="0 0 624 602" fill="none" xmlns="http://www.w3.org/2000/svg">
<g clip-path="url(#clip0_11_2)">
<path d="M267 1C297.354 1 327.708 1 358.618 1.38004C360.01 2.16773 360.806 2.76238 361.69 2.95542C379.472 6.83768 397.581 9.59859 414.985 14.7471C449.238 24.88 480.17 41.786 508.528 63.6089C528.801 79.2104 546.884 96.9579 562.358 117.188C594.128 158.724 614.527 205.262 622.129 257.209C622.616 260.542 624.022 263.74 625 267C625 290.021 625 313.042 624.62 336.618C623.833 338.011 623.241 338.808 623.047 339.692C619.162 357.475 616.395 375.584 611.245 392.99C601.11 427.245 584.209 458.181 562.381 486.541C546.779 506.811 529.041 524.903 508.812 540.368C467.274 572.122 420.743 592.54 368.793 600.126C365.46 600.612 362.261 602.021 359 603C328.646 603 298.292 603 267.382 602.62C261.574 601.177 256.348 599.94 251.062 599.079C214.212 593.074 179.819 580.237 147.853 561.146C121.352 545.319 97.6377 526.026 77.0837 502.781C61.9312 485.644 48.6824 467.262 37.7313 447.273C20.5021 415.826 8.96861 382.384 3.86568 346.795C3.38773 343.462 1.97742 340.262 1 337C1 313.979 1 290.958 1.37976 267.382C2.16666 265.989 2.76025 265.192 2.95343 264.307C6.83747 246.528 9.60494 228.422 14.7497 211.018C24.8766 176.761 41.7882 145.83 63.6113 117.472C79.2122 97.199 96.9487 79.0992 117.182 63.6328C158.723 31.8784 205.26 11.466 257.209 3.87046C260.542 3.38326 263.74 1.97812 267 1ZM454.897 236.221C453.753 230.859 449.031 230.288 444.995 229.281C440.243 228.095 439.464 224.804 439.209 220.786C439.036 218.064 438.659 215.35 438.279 212.646C437.905 209.982 437.047 207.335 437.049 204.682C437.055 199.507 433.924 194.926 428.801 194C424.684 193.256 423.536 190.431 423.061 186.967C422.062 179.686 421.388 179.054 413.802 178.347C412.833 176.909 411.864 175.471 411.546 173.896C412.97 169.617 411.335 166.898 406.163 165.937C405.731 164.973 405.299 164.009 405.639 162.904C409.557 160.69 408.922 156.372 407.145 154.473C405.131 152.32 401.032 152.116 397.154 150.924C395.308 148.091 393.359 145.32 391.633 142.415C376.927 117.66 362.286 92.8657 347.574 68.1131C336.136 48.8679 324.626 29.6656 312.959 10.1289C312.342 11.0179 311.963 11.521 311.629 12.0528C267.789 81.8273 223.759 151.484 180.176 221.418C144.167 279.198 108.482 337.182 73.1321 395.366C65.3978 408.096 59.2941 421.884 53.2879 435.557C51.4391 439.766 50.5942 446.087 52.4422 449.921C57.0985 459.582 63.5502 468.377 69.3046 477.555C75.4007 475.572 80.9449 473.843 86.4392 471.968C115.163 462.165 143.325 451.214 168.403 433.558C192.919 416.299 214.583 395.821 234.992 374.071C259.711 347.727 283.811 320.798 307.899 293.872C314.435 286.567 321.988 282.396 331.712 282.157C339.039 281.977 346.368 281.85 353.696 281.799C390.847 281.539 427.999 281.399 465.149 281.019C475.94 280.908 484.523 276.168 491.283 267.6C499.844 256.752 508.852 246.256 517.628 235.577C519.301 233.542 520.796 231.361 522.043 229.691C531.179 234.437 539.07 236.77 547.938 235.129C562.755 232.388 574.256 220.781 576.619 205.662C578.869 191.269 571.372 176.355 558.749 170.107C544.55 163.081 527.734 165.612 517.085 176.188C507.358 185.848 505.602 197.483 507.996 210.348C508.28 211.878 508.148 214.2 507.201 215.129C501.633 220.595 495.766 225.757 489.979 230.251C488.981 229.119 488.201 227.469 486.948 226.94C480.31 224.136 473.568 228.737 471.08 237.108C465.72 237.047 460.36 236.986 454.897 236.221ZM559.403 477.946C569.26 467.781 569.506 466.37 563.529 453.624C562.753 451.968 561.935 450.324 561.021 448.742C545.544 421.938 530.088 395.122 514.452 368.412C513.61 366.975 511.255 365.662 509.56 365.604C490.924 364.968 472.281 364.522 453.637 364.163C428.833 363.687 404.026 363.313 379.22 362.941C372.986 362.848 366.75 362.927 359.111 362.927C365.986 355.537 372.048 349.414 377.644 342.891C383.031 336.611 389.619 333.577 397.785 333.761C429.41 334.475 461.049 334.842 492.655 336.06C512.628 336.83 531.842 334.76 550.051 326.082C551.803 325.247 553.656 324.624 554.3 324.367C559.944 327.917 564.438 331.473 569.501 333.782C581.565 339.284 593.32 337.73 603.948 330.017C614.227 322.556 618.682 311.886 617.271 299.479C615.234 281.565 601.169 269.887 582.883 269.904C565.337 269.921 552.405 281.621 549.736 299.723C549.532 301.106 548.592 303.146 547.524 303.514C540.176 306.041 532.793 309.725 525.251 310.177C508.155 311.199 490.958 310.745 473.806 310.58C435.006 310.207 396.209 309.572 357.41 309.206C345.845 309.097 335.455 312.163 327.509 321.424C310.589 341.142 293.483 360.699 276.498 380.362C273.106 384.289 269.917 388.391 266.241 392.894C283.315 393.552 299.427 394.252 315.545 394.777C347.159 395.807 378.777 396.685 410.387 397.828C412.571 397.907 415.401 399.089 416.719 400.731C421.187 406.297 425.419 412.109 429.18 418.175C438.436 433.104 451.223 443.852 467.051 451.119C495.336 464.105 525.337 471.737 555.392 479.162C556.444 479.422 557.732 478.727 559.403 477.946ZM453.419 208.991C453.892 208.321 454.515 207.711 454.81 206.971C456.013 203.95 456.194 200.461 452.928 199.282C450.574 198.432 446.643 198.851 444.898 200.388C443.502 201.618 443.474 205.731 444.369 207.946C446.037 212.07 449.618 210.906 453.419 208.991Z" fill="#1E1E1E"/>
<path d="M410.894 174.034C411.864 175.471 412.833 176.909 413.859 179.026C420.638 190.903 427.359 202.102 434.24 213.564C433.11 213.83 432.645 214.036 432.18 214.036C404.196 214.023 376.211 214.039 348.228 213.839C346.727 213.828 344.686 212.327 343.832 210.943C337.984 201.454 332.401 191.801 326.702 182.22C321.663 173.748 316.584 165.3 311.26 156.403C310.056 158.108 309.279 159.163 308.548 160.249C273.971 211.592 239.388 262.932 204.831 314.289C196.286 326.988 187.829 339.746 179.153 352.645C178.74 353.073 178.649 353.377 178.398 353.777C177.84 354.116 177.585 354.403 177.33 354.69C177.95 354.527 178.569 354.364 179.454 354.167C179.893 353.833 180.065 353.534 180.55 353.115C193.329 340.753 205.926 328.64 218.234 316.239C238.987 295.33 259.446 274.129 280.248 253.269C291.034 242.453 304.058 236.737 319.689 237.103C334.829 237.457 349.983 237.215 365.131 237.181C395.088 237.115 425.044 237.013 455.001 236.926C460.36 236.986 465.72 237.047 471.971 237.112C479.394 237.386 485.27 235.815 490 231.021C495.766 225.757 501.633 220.595 507.201 215.129C508.148 214.2 508.28 211.878 507.996 210.348C505.602 197.483 507.358 185.848 517.085 176.188C527.734 165.612 544.55 163.081 558.749 170.107C571.372 176.355 578.869 191.269 576.619 205.662C574.256 220.781 562.755 232.387 547.938 235.129C539.07 236.77 531.179 234.437 522.043 229.691C520.796 231.361 519.301 233.542 517.628 235.577C508.852 246.256 499.844 256.752 491.283 267.6C484.523 276.168 475.94 280.908 465.149 281.019C427.999 281.399 390.847 281.539 353.696 281.799C346.368 281.85 339.039 281.977 331.712 282.157C321.988 282.396 314.435 286.567 307.899 293.872C283.811 320.798 259.711 347.727 234.992 374.071C214.583 395.821 192.919 416.299 168.403 433.558C143.325 451.214 115.163 462.165 86.4392 471.968C80.9449 473.843 75.4007 475.572 69.3046 477.555C63.5502 468.377 57.0985 459.582 52.4421 449.921C50.5942 446.087 51.4391 439.766 53.2879 435.557C59.2941 421.884 65.3978 408.096 73.1321 395.366C108.482 337.182 144.167 279.198 180.176 221.418C223.759 151.484 267.789 81.8273 311.629 12.0528C311.963 11.521 312.342 11.0179 312.959 10.1289C324.626 29.6656 336.136 48.8678 347.574 68.1131C362.286 92.8657 376.927 117.66 391.633 142.415C393.359 145.32 395.308 148.091 397.513 151.371C400.203 155.56 402.535 159.303 404.866 163.045C405.299 164.009 405.731 164.973 406.52 166.375C408.216 169.22 409.555 171.627 410.894 174.034ZM535.074 187.147C528.142 191.555 525.517 197.896 527.716 204.921C529.785 211.533 535.941 215.727 542.954 215.303C550.112 214.87 555.288 210.295 556.754 203.106C559.134 191.432 548.456 183.15 535.074 187.147Z" fill="#FDFDFD"/>
<path d="M559.157 478.211C557.732 478.727 556.444 479.422 555.392 479.162C525.337 471.737 495.336 464.105 467.051 451.119C451.223 443.852 438.436 433.104 429.18 418.175C425.419 412.109 421.187 406.297 416.719 400.731C415.401 399.089 412.571 397.907 410.387 397.828C378.777 396.685 347.159 395.807 315.545 394.777C299.427 394.252 283.315 393.552 266.241 392.894C269.917 388.391 273.106 384.288 276.498 380.362C293.483 360.699 310.589 341.142 327.509 321.424C335.455 312.163 345.845 309.097 357.41 309.206C396.209 309.572 435.006 310.207 473.806 310.58C490.958 310.745 508.155 311.199 525.251 310.177C532.793 309.725 540.176 306.041 547.524 303.514C548.592 303.146 549.532 301.106 549.736 299.723C552.405 281.621 565.337 269.921 582.883 269.904C601.169 269.887 615.234 281.565 617.271 299.479C618.682 311.886 614.227 322.556 603.948 330.017C593.32 337.73 581.565 339.284 569.501 333.782C564.438 331.473 559.944 327.917 554.3 324.367C553.656 324.624 551.803 325.247 550.051 326.082C531.842 334.76 512.628 336.83 492.655 336.06C461.049 334.842 429.41 334.475 397.785 333.761C389.619 333.577 383.031 336.611 377.644 342.891C372.048 349.414 365.986 355.537 359.111 362.927C366.75 362.927 372.986 362.848 379.22 362.941C404.026 363.313 428.833 363.687 453.637 364.163C472.281 364.522 490.924 364.968 509.56 365.604C511.255 365.662 513.61 366.975 514.452 368.412C530.088 395.122 545.544 421.938 561.021 448.742C561.935 450.324 562.753 451.968 563.529 453.624C569.506 466.37 569.26 467.781 559.157 478.211ZM571.438 309.704C576.286 316.737 582.653 319.109 589.289 316.355C596.519 313.353 599.95 305.384 597.069 298.284C594.061 290.87 586.075 287.33 578.683 290.135C571.204 292.972 568.067 300.739 571.438 309.704Z" fill="#FCFCFC"/>
<path d="M454.949 236.573C425.044 237.013 395.088 237.115 365.131 237.181C349.983 237.215 334.829 237.457 319.689 237.103C304.058 236.737 291.034 242.453 280.248 253.269C259.446 274.129 238.987 295.33 218.234 316.239C205.926 328.64 193.329 340.753 180.329 352.918C179.642 352.719 179.486 352.598 179.331 352.477C187.829 339.746 196.286 326.988 204.831 314.289C239.388 262.932 273.971 211.592 308.548 160.249C309.279 159.163 310.056 158.108 311.26 156.403C316.584 165.3 321.663 173.748 326.702 182.22C332.401 191.801 337.984 201.454 343.832 210.943C344.686 212.327 346.727 213.828 348.228 213.839C376.211 214.039 404.196 214.023 432.18 214.036C432.645 214.036 433.11 213.83 434.24 213.564C427.359 202.102 420.638 190.903 413.999 179.352C421.388 179.054 422.062 179.686 423.061 186.967C423.536 190.431 424.684 193.256 428.801 194C433.924 194.926 437.055 199.507 437.049 204.682C437.047 207.335 437.905 209.982 438.279 212.646C438.659 215.35 439.036 218.064 439.209 220.786C439.464 224.804 440.243 228.095 444.995 229.281C449.031 230.288 453.753 230.859 454.949 236.573Z" fill="#24201D"/>
<path d="M489.99 230.636C485.27 235.815 479.394 237.386 472.431 237.02C473.568 228.737 480.31 224.136 486.948 226.94C488.201 227.469 488.981 229.119 489.99 230.636Z" fill="#24201D"/>
<path d="M453.118 209.22C449.618 210.906 446.037 212.07 444.369 207.946C443.474 205.731 443.502 201.618 444.898 200.388C446.643 198.851 450.574 198.432 452.928 199.282C456.194 200.461 456.013 203.95 454.81 206.971C454.515 207.711 453.892 208.321 453.118 209.22Z" fill="#221E1A"/>
<path d="M405.253 162.975C402.535 159.303 400.203 155.56 397.856 151.441C401.032 152.116 405.131 152.32 407.145 154.473C408.922 156.371 409.557 160.69 405.253 162.975Z" fill="#24201D"/>
<path d="M411.22 173.965C409.555 171.627 408.216 169.22 406.855 166.438C411.335 166.898 412.97 169.617 411.22 173.965Z" fill="#24201D"/>
<path d="M535.453 187.014C548.456 183.151 559.134 191.432 556.754 203.106C555.288 210.295 550.112 214.87 542.954 215.303C535.941 215.727 529.785 211.533 527.716 204.921C525.517 197.896 528.142 191.555 535.453 187.014Z" fill="#282320"/>
<path d="M179.188 354.201C178.569 354.364 177.95 354.527 177.33 354.69C177.585 354.403 177.84 354.116 178.522 353.894C178.948 353.959 179.188 354.201 179.188 354.201Z" fill="#24201D"/>
<path d="M178.825 353.842C178.649 353.377 178.74 353.073 179.153 352.644C179.486 352.598 179.642 352.719 180.017 353.037C180.065 353.534 179.893 353.833 179.454 354.167C179.188 354.201 178.948 353.959 178.825 353.842Z" fill="#24201D"/>
<path d="M571.25 309.353C568.067 300.739 571.204 292.972 578.683 290.135C586.075 287.33 594.061 290.87 597.069 298.284C599.95 305.384 596.519 313.353 589.289 316.355C582.653 319.109 576.286 316.737 571.25 309.353Z" fill="#2A2521"/>
</g>
<defs>
<clipPath id="clip0_11_2">
<rect width="624" height="602" fill="white"/>
</clipPath>
</defs>
</svg>
